<?xml version="1.0" encoding="UTF-8"?>
<svg width="70px" height="70px" viewBox="0 0 70 70" version="1.1" xmlns="http://www.w3.org/2000/svg" xmlns:xlink="http://www.w3.org/1999/xlink">
    <!-- Generator: Sketch 52.5 (67469) - http://www.bohemiancoding.com/sketch -->
    <title>mennesker/mann/ forfra</title>
    <desc>Created with Sketch.</desc>
    <defs>
        <circle id="path-1" cx="35" cy="35" r="35"></circle>
        <path d="M21.9231131,0.294916269 C25.3153405,1.64748329 32,7.41901947 32,12.7322358 L32,28.6956522 L0,28.6956522 L0,12.7322358 C0,7.34363965 6.75780717,1.48362681 10.0754209,0.240030976 C10.1433197,3.34529405 12.769846,6.52173913 16,6.52173913 C19.2111255,6.52173913 21.8257141,3.38260817 21.9231131,0.294916269 Z" id="path-3"></path>
        <path d="M24.0340909,15.2125312 C21.7805217,12.2066821 20.2030812,7.99439534 20.2030812,7.99439534 C13.0325285,5.58835007 4.05414212,8.06890513 3.99451776,8.3048528 C3.18061633,11.5149829 0.170454552,15.483871 0.170454552,15.483871 C0.215990462,7.6014829 3.9832997,-0.0157665969 12.0935896,0.00011589775 C20.4126347,-0.0327925924 23.8141176,6.94691189 24.0340909,15.2125312 Z" id="path-5"></path>
        <path d="M12.0486491,11.4742816 C9.2207036,11.4742816 6.92834763,10.4792474 6.92834763,9.25194294 C6.92834763,8.02463848 9.2207036,7.02960426 12.0486491,7.02960426 C14.8765947,7.02960426 17.1689506,8.02463848 17.1689506,9.25194294 C17.1689506,10.4792474 14.8765947,11.4742816 12.0486491,11.4742816 M12.3222256,5.77638033 C10.5356641,5.77638033 9.32109683,5.78762918 6.97665678,7.04625028 C1.5568269,9.95470241 0,0 0,0 C0,16.3751979 7.41731331,20.3636364 12.2405998,20.3636364 C17.1399885,20.3636364 25,17.1938641 25,0 C24.6725658,0.27309703 22.6819502,9.07916707 17.1264865,6.89689058 C14.9698472,6.0501023 14.1087871,5.77638033 12.3222256,5.77638033 Z" id="path-7"></path>
    </defs>
    <g id="Innlogget-borger" stroke="none" stroke-width="1" fill="none" fill-rule="evenodd">
        <g id="Borger---Kontaktinformasjon" transform="translate(-472.000000, -480.000000)">
            <g id="mennesker/mann/-forfra" transform="translate(472.000000, 480.000000)">
                <mask id="mask-2" fill="white">
                    <use xlink:href="#path-1"></use>
                </mask>
                <use id="Mask" fill-opacity="0.8" fill="#FFA733" xlink:href="#path-1"></use>
                <g id="gjenstander/helse/røntgenbilde-copy" mask="url(#mask-2)">
                    <g transform="translate(33.000000, 28.000000)">
                        <rect id="Rectangle-28" fill="#B7B1A9" fill-rule="nonzero" x="0" y="0" width="38" height="26.8125" rx="2"></rect>
                        <rect id="Rectangle" fill="#B7B1A9" fill-rule="nonzero" x="16.625" y="26.8125" width="4.15625" height="12.1875"></rect>
                        <rect id="Rectangle-29" fill="#3E3832" fill-rule="nonzero" x="2.375" y="2.4375" width="33.25" height="19.5"></rect>
                        <ellipse id="Oval-11" fill="#66CBEC" fill-rule="nonzero" cx="32.65625" cy="24.375" rx="1.78125" ry="1.828125"></ellipse>
                        <rect id="Rectangle-31" fill="#E7E9E9" fill-rule="nonzero" x="2.375" y="23.15625" width="3.5625" height="2.4375"></rect>
                        <rect id="Rectangle-31-Copy" fill="#E7E9E9" fill-rule="nonzero" x="8.3125" y="23.15625" width="3.5625" height="2.4375"></rect>
                        <rect id="Rectangle-31-Copy-2" fill="#E7E9E9" fill-rule="nonzero" x="14.25" y="23.15625" width="3.5625" height="2.4375"></rect>
                        <polygon id="Line-6" fill="#FFBD66" fill-rule="nonzero" points="26.125 3.65625 26.71875 3.65625 26.71875 21.328125 26.125 21.328125"></polygon>
                        <path d="M7.61979167,9.71312686 L7.23846361,10.7697875 C7.19532979,10.8893114 7.0842619,10.968649 6.96006944,10.968649 L5.640625,10.968649 C5.47666546,10.968649 5.34375,10.8322383 5.34375,10.6639671 C5.34375,10.495696 5.47666546,10.3592852 5.640625,10.3592852 L6.75344049,10.3592852 L7.3413975,8.7300554 C7.43708444,8.46490673 7.80249889,8.46490673 7.89818583,8.7300554 L8.14787301,9.42193899 L8.64518372,5.7471423 C8.69259749,5.3967859 9.18587473,5.3967859 9.2332885,5.7471423 L9.8574504,10.3592852 L11.578125,10.3592852 C11.7420845,10.3592852 11.875,10.495696 11.875,10.6639671 C11.875,10.8322383 11.7420845,10.968649 11.578125,10.968649 L9.59895833,10.968649 C9.45077953,10.968649 9.32529066,10.8565113 9.30490594,10.7058817 L8.93923611,8.0038239 L8.57356628,10.7058817 C8.53111009,11.0196049 8.10830748,11.066805 8.00111973,10.7697875 L7.61979167,9.71312686 Z" id="Path-22" fill="#FFBD66" fill-rule="nonzero"></path>
                        <path d="M12.5822136,10.7697875 C12.5390798,10.8893114 12.4280119,10.968649 12.3038194,10.968649 L10.984375,10.968649 C10.8204155,10.968649 10.6875,10.8322383 10.6875,10.6639671 C10.6875,10.495696 10.8204155,10.3592852 10.984375,10.3592852 L12.0971905,10.3592852 L12.6851475,8.7300554 C12.7808344,8.46490673 13.1462489,8.46490673 13.2419358,8.7300554 L13.491623,9.42193899 L13.9889337,5.7471423 C14.0363475,5.3967859 14.5296247,5.3967859 14.5770385,5.7471423 L15.2012004,10.3592852 L16.921875,10.3592852 C17.0858345,10.3592852 17.21875,10.495696 17.21875,10.6639671 C17.21875,10.8322383 17.0858345,10.968649 16.921875,10.968649 L14.9427083,10.968649 C14.7945295,10.968649 14.6690407,10.8565113 14.6486559,10.7058817 L14.2829861,8.0038239 L13.9173163,10.7058817 C13.8748601,11.0196049 13.4520575,11.066805 13.3448697,10.7697875 L12.9635417,9.71312686 L12.5822136,10.7697875 Z" id="Path-22-Copy" fill="#FFBD66" fill-rule="nonzero"></path>
                        <path d="M18.5197136,10.7697875 C18.4765798,10.8893114 18.3655119,10.968649 18.2413194,10.968649 L16.921875,10.968649 C16.7579155,10.968649 16.625,10.8322383 16.625,10.6639671 C16.625,10.495696 16.7579155,10.3592852 16.921875,10.3592852 L18.0346905,10.3592852 L18.6226475,8.7300554 C18.7183344,8.46490673 19.0837489,8.46490673 19.1794358,8.7300554 L19.429123,9.42193899 L19.9264337,5.7471423 C19.9738475,5.3967859 20.4671247,5.3967859 20.5145385,5.7471423 L21.1387004,10.3592852 L22.859375,10.3592852 C23.0233345,10.3592852 23.15625,10.495696 23.15625,10.6639671 C23.15625,10.8322383 23.0233345,10.968649 22.859375,10.968649 L20.8802083,10.968649 C20.7320295,10.968649 20.6065407,10.8565113 20.5861559,10.7058817 L20.2204861,8.0038239 L19.8548163,10.7058817 C19.8123601,11.0196049 19.3895575,11.066805 19.2823697,10.7697875 L18.9010417,9.71312686 L18.5197136,10.7697875 Z" id="Path-22-Copy-2" fill="#FFBD66" fill-rule="nonzero"></path>
                        <path d="M7.56065537,17.6119274 L7.29838939,18.6616264 C7.26471964,18.7963869 7.14637725,18.890625 7.01081731,18.890625 L5.640625,18.890625 C5.47666546,18.890625 5.34375,18.7542189 5.34375,18.5859535 C5.34375,18.4176881 5.47666546,18.281282 5.640625,18.281282 L6.78046024,18.281282 L7.17997599,16.6822515 C7.24784278,16.41062 7.60702737,16.3693762 7.73171264,16.6188977 L7.81159727,16.7787637 L8.09105492,15.4738384 C8.11152302,15.3782628 8.17547864,15.2985938 8.26296991,15.2596853 L9.63316222,14.6503422 C9.81448992,14.5697033 10.0205365,14.6899881 10.0456668,14.8911519 L10.4691767,18.281282 L11.578125,18.281282 C11.7420845,18.281282 11.875,18.4176881 11.875,18.5859535 C11.875,18.7542189 11.7420845,18.890625 11.578125,18.890625 L10.2079327,18.890625 C10.0585684,18.890625 9.93246163,18.7767392 9.91346782,18.6246968 L9.50694751,15.3705654 L8.63837082,15.7568332 L8.21423354,17.7373388 C8.15448632,18.016328 7.78712457,18.06514 7.66011429,17.8109656 L7.56065537,17.6119274 Z" id="Path-23" fill="#FFBD66" fill-rule="nonzero"></path>
                        <path d="M12.6421394,18.6616264 C12.6084696,18.7963869 12.4901273,18.890625 12.3545673,18.890625 L10.984375,18.890625 C10.8204155,18.890625 10.6875,18.7542189 10.6875,18.5859535 C10.6875,18.4176881 10.8204155,18.281282 10.984375,18.281282 L12.1242102,18.281282 L12.523726,16.6822515 C12.5915928,16.41062 12.9507774,16.3693762 13.0754626,16.6188977 L13.1553473,16.7787637 L13.4348049,15.4738384 C13.455273,15.3782628 13.5192286,15.2985938 13.6067199,15.2596853 L14.9769122,14.6503422 C15.1582399,14.5697033 15.3642865,14.6899881 15.3894168,14.8911519 L15.8129267,18.281282 L16.921875,18.281282 C17.0858345,18.281282 17.21875,18.4176881 17.21875,18.5859535 C17.21875,18.7542189 17.0858345,18.890625 16.921875,18.890625 L15.5516827,18.890625 C15.4023184,18.890625 15.2762116,18.7767392 15.2572178,18.6246968 L14.8506975,15.3705654 L13.9821208,15.7568332 L13.5579835,17.7373388 C13.4982363,18.016328 13.1308746,18.06514 13.0038643,17.8109656 L12.9044054,17.6119274 L12.6421394,18.6616264 Z" id="Path-23-Copy" fill="#FFBD66" fill-rule="nonzero"></path>
                        <path d="M17.9858894,18.6616264 C17.9522196,18.7963869 17.8338773,18.890625 17.6983173,18.890625 L16.328125,18.890625 C16.1641655,18.890625 16.03125,18.7542189 16.03125,18.5859535 C16.03125,18.4176881 16.1641655,18.281282 16.328125,18.281282 L17.4679602,18.281282 L17.867476,16.6822515 C17.9353428,16.41062 18.2945274,16.3693762 18.4192126,16.6188977 L18.4990973,16.7787637 L18.7785549,15.4738384 C18.799023,15.3782628 18.8629786,15.2985938 18.9504699,15.2596853 L20.3206622,14.6503422 C20.5019899,14.5697033 20.7080365,14.6899881 20.7331668,14.8911519 L21.1566767,18.281282 L22.265625,18.281282 C22.4295845,18.281282 22.5625,18.4176881 22.5625,18.5859535 C22.5625,18.7542189 22.4295845,18.890625 22.265625,18.890625 L20.8954327,18.890625 C20.7460684,18.890625 20.6199616,18.7767392 20.6009678,18.6246968 L20.1944475,15.3705654 L19.3258708,15.7568332 L18.9017335,17.7373388 C18.8419863,18.016328 18.4746246,18.06514 18.3476143,17.8109656 L18.2481554,17.6119274 L17.9858894,18.6616264 Z" id="Path-23-Copy-2" fill="#FFBD66" fill-rule="nonzero"></path>
                        <text id="70" fill="none" font-family="SourceSansPro-Bold, Source Sans Pro" font-size="9" font-weight="bold">
                            <tspan x="27.90625" y="16.921875" fill="#FFBD66">7</tspan>
                            <tspan x="27.90625" y="27.921875" fill="#FFBD66">0</tspan>
                        </text>
                        <path d="M14.25,26.8125 L23.15625,26.8125 L23.15625,27.25 C23.15625,28.3545695 22.2608195,29.25 21.15625,29.25 L16.25,29.25 C15.1454305,29.25 14.25,28.3545695 14.25,27.25 L14.25,26.8125 Z" id="Rectangle-21" fill="#78706A" fill-rule="nonzero"></path>
                    </g>
                </g>
                <g mask="url(#mask-2)">
                    <g transform="translate(9.000000, 8.000000)">
                        <g id="mann-bak" transform="translate(4.117647, 4.520833)">
                            <path d="M8.23529412,30.1428334 C8.83605788,31.1975779 10.5234021,49.7291667 15.5882353,49.7291667 C20.6541648,49.7291667 22.9411765,30.8530149 22.9411765,29.8704779 C15.1852286,24.9923196 8.23529412,30.1428334 8.23529412,30.1428334 Z" id="Path" fill="#E7E5E2"></path>
                            <g id="mennesker/⚙️/kropp/Person/Forfra/-rund-hals" transform="translate(0.000000, 27.770833)">
                                <g id="Group" transform="translate(0.000000, 1.304348)">
                                    <mask id="mask-4" fill="white">
                                        <use xlink:href="#path-3"></use>
                                    </mask>
                                    <use id="Mask" fill="#D8A25D" xlink:href="#path-3"></use>
                                    <g id="⚙️/+20/-Blå" mask="url(#mask-4)">
                                        <g transform="translate(-21.333333, -18.260870)" id="+20/-Blå">
                                            <g>
                                                <polygon id="Fill-66" fill="#0C5EA8" points="0 65 75 65 75 0 0 0"></polygon>
                                            </g>
                                        </g>
                                    </g>
                                </g>
                            </g>
                            <path d="M27.7575154,20.1950536 C26.2762896,26.8070155 21.5203916,31.6458333 15.8820589,31.6458333 C10.2437951,31.6458333 5.48834614,26.8071339 4.00719776,20.1952962 C3.86123427,20.2566955 3.69957031,20.2907917 3.52941176,20.2907917 C2.88051258,20.2907917 2.35294118,19.7928542 2.35294118,19.1760833 L2.35294118,14.6778542 C2.35294118,14.0610833 2.88051258,13.5625 3.52941176,13.5625 C3.57141111,13.5625 3.61289295,13.5645799 3.65374893,13.5686373 C4.50769597,5.89763217 9.65677173,0 15.8820589,0 C22.1073525,0 27.2569222,5.89764448 28.1109469,13.5686613 C28.1518144,13.5645881 28.1933002,13.5625 28.2352941,13.5625 C28.8855565,13.5625 29.4117647,14.0610833 29.4117647,14.6778542 L29.4117647,19.1760833 C29.4117647,19.7928542 28.8855565,20.2907917 28.2352941,20.2907917 C28.0652688,20.2907917 27.9035733,20.2566057 27.7575154,20.1950536 Z" id="Combined-Shape" fill="#E7E5E2"></path>
                        </g>
                        <g id="mennesker/mann/⚙️/ansikt-forfra/-undrende" transform="translate(8.235294, 16.145833)">
                            <g id="Group" transform="translate(6.439024, 0.000000)">
                                <path d="M1.37145366,2.74523793 C0.524429268,2.79699655 0.287356098,1.79523793 0.54257561,1.14203103 C0.59057561,1.01754828 0.870965854,0.453444828 1.3673561,0.453444828 C1.86316098,0.453444828 2.0820878,0.762031034 2.11252683,0.8151 C2.47720976,1.45258276 2.29867317,2.68954828 1.37145366,2.74523793" id="Fill-95" fill="#635E59"></path>
                                <path d="M10.2393951,2.74523793 C11.0864195,2.79699655 11.3234927,1.79523793 11.0688585,1.14203103 C11.0202732,1.01754828 10.7398829,0.453444828 10.2434927,0.453444828 C9.7476878,0.453444828 9.52876098,0.762031034 9.49832195,0.8151 C9.13363902,1.45258276 9.31276098,2.68954828 10.2393951,2.74523793" id="Fill-97" fill="#635E59"></path>
                                <path d="M6.32218537,4.4817069 C6.82852683,4.39456897 7.32199024,4.41553448 7.55379512,4.73394828 C8.11867317,5.51098276 7.95652683,6.40791379 7.00530732,7.0702931 C6.52999024,7.40115517 5.85681951,7.53677586 5.44413659,7.33236207" id="Stroke-99" stroke="#D1BFA3" stroke-linecap="round"></path>
                                <path d="M2.40813659,11.0183621 C2.40813659,11.0183621 2.84013659,11.5759138 4.04306341,11.565431 L5.24657561,11.5549483" id="Stroke-101" stroke="#593A32" stroke-width="1.013" stroke-linecap="round"></path>
                            </g>
                        </g>
                        <g id="mennesker/mann/⚙️/-hår/-forfra/-kort-" transform="translate(7.058824, 1.937500)">
                            <g id="g/hårfarge/-sort" transform="translate(0.568182, 0.000000)">
                                <mask id="mask-6" fill="white">
                                    <use xlink:href="#path-5"></use>
                                </mask>
                                <g id="Mask"></g>
                                <g id="mennesker/⚙️/hårfarge/-sort" mask="url(#mask-6)" fill="#3E3832">
                                    <g transform="translate(-7.954545, -18.709677)" id="hårfarge/-sort">
                                        <rect x="0" y="0" width="39" height="51"></rect>
                                    </g>
                                </g>
                            </g>
                        </g>
                        <g id="mennesker/mann/⚙️/-skjegg/-forfra/-lang" transform="translate(7.588235, 17.437500)">
                            <g id="hårfarge/-rød" transform="translate(0.000000, 0.636364)">
                                <mask id="mask-8" fill="white">
                                    <use xlink:href="#path-7"></use>
                                </mask>
                                <g id="Mask"></g>
                                <g id="mennesker/⚙️/hårfarge/-sort" mask="url(#mask-8)" fill="#3E3832">
                                    <g transform="translate(-8.333333, -15.909091)" id="hårfarge/-sort">
                                        <rect x="0" y="0" width="41" height="50"></rect>
                                    </g>
                                </g>
                            </g>
                        </g>
                    </g>
                </g>
            </g>
        </g>
    </g>
</svg>