<?xml version="1.0" encoding="UTF-8"?>
<svg width="70px" height="70px" viewBox="0 0 70 70" version="1.1" xmlns="http://www.w3.org/2000/svg" xmlns:xlink="http://www.w3.org/1999/xlink">
    <!-- Generator: Sketch 52.5 (67469) - http://www.bohemiancoding.com/sketch -->
    <title>happykiller</title>
    <desc>Created with Sketch.</desc>
    <defs>
        <circle id="path-1" cx="35" cy="35" r="35"></circle>
        <circle id="path-3" cx="35" cy="35" r="35"></circle>
        <path d="M21.9231131,0.285085727 C25.3153405,1.59256718 32,7.17171882 32,12.3078279 L32,27.7391304 L0,27.7391304 L0,12.3078279 C0,7.09885166 6.75780717,1.43417259 10.0754209,0.232029943 C10.1433197,3.23378425 12.769846,6.30434783 16,6.30434783 C19.2111255,6.30434783 21.8257141,3.26985456 21.9231131,0.285085727 Z" id="path-5"></path>
        <path d="M24.0340909,15.2125312 C21.7805217,12.2066821 20.2030812,7.99439534 20.2030812,7.99439534 C13.0325285,5.58835007 4.05414212,8.06890513 3.99451776,8.3048528 C3.18061633,11.5149829 0.170454552,15.483871 0.170454552,15.483871 C0.215990462,7.6014829 3.9832997,-0.0157665969 12.0935896,0.00011589775 C20.4126347,-0.0327925924 23.8141176,6.94691189 24.0340909,15.2125312 Z" id="path-7"></path>
        <path d="M12.0486491,11.4742816 C9.2207036,11.4742816 6.92834763,10.4792474 6.92834763,9.25194294 C6.92834763,8.02463848 9.2207036,7.02960426 12.0486491,7.02960426 C14.8765947,7.02960426 17.1689506,8.02463848 17.1689506,9.25194294 C17.1689506,10.4792474 14.8765947,11.4742816 12.0486491,11.4742816 Z M12.3222256,5.77638033 C10.5356641,5.77638033 9.32109683,5.78762918 6.97665678,7.04625028 C1.5568269,9.95470241 0,0 0,0 C0,16.3751979 7.41731331,20.3636364 12.2405998,20.3636364 C17.1399885,20.3636364 25,17.1938641 25,0 C24.6725658,0.27309703 22.6819502,9.07916707 17.1264865,6.89689058 C14.9698472,6.0501023 14.1087871,5.77638033 12.3222256,5.77638033 Z" id="path-9"></path>
        <circle id="path-11" cx="35" cy="35" r="35"></circle>
        <circle id="path-13" cx="35" cy="35" r="35"></circle>
        <circle id="path-15" cx="35" cy="35" r="35"></circle>
    </defs>
    <g id="Innlogget-borger" stroke="none" stroke-width="1" fill="none" fill-rule="evenodd">
        <g id="Borger---Kontaktinformasjon" transform="translate(-470.000000, -477.000000)">
            <g id="happykiller" transform="translate(470.000000, 477.000000)">
                <g id="Mask" fill="#FFA733" fill-opacity="0.8">
                    <circle id="path-1" cx="35" cy="35" r="35"></circle>
                </g>
                <g id="gjenstander/helse/røntgenbilde-copy-Clipped">
                    <mask id="mask-2" fill="white">
                        <use xlink:href="#path-1"></use>
                    </mask>
                    <g id="path-1"></g>
                    <g id="gjenstander/helse/røntgenbilde-copy" mask="url(#mask-2)">
                        <g transform="translate(33.000000, 28.000000)" id="Group">
                            <g transform="translate(0.090909, 0.318182)">
                                <rect id="Rectangle-28" fill="#B7B1A9" x="0" y="0" width="37.8636364" height="26.46875" rx="2"></rect>
                                <rect id="Rectangle" fill="#B7B1A9" x="16.5653409" y="26.46875" width="4.14133523" height="12.03125"></rect>
                                <rect id="Rectangle-29" fill="#3E3832" x="2.36647727" y="2.40625" width="33.1306818" height="19.25"></rect>
                                <ellipse id="Oval-11" fill="#66CBEC" cx="32.5390625" cy="24.0625" rx="1.77485795" ry="1.8046875"></ellipse>
                                <rect id="Rectangle-31" fill="#E7E9E9" x="2.36647727" y="22.859375" width="3.54971591" height="2.40625"></rect>
                                <rect id="Rectangle-31-Copy" fill="#E7E9E9" x="8.28267045" y="22.859375" width="3.54971591" height="2.40625"></rect>
                                <rect id="Rectangle-31-Copy-2" fill="#E7E9E9" x="14.1988636" y="22.859375" width="3.54971591" height="2.40625"></rect>
                                <polygon id="Line-6" fill="#FFBD66" points="26.6676136 3.609375 27.259233 3.609375 27.259233 21.0546875 26.6676136 21.0546875"></polygon>
                                <path d="M7.59244792,9.58859959 L7.21248826,10.6317133 C7.16950922,10.7497049 7.05883991,10.8280253 6.93509312,10.8280253 L5.62038352,10.8280253 C5.45701236,10.8280253 5.32457386,10.6933634 5.32457386,10.5272496 C5.32457386,10.3611358 5.45701236,10.2264739 5.62038352,10.2264739 L6.72920565,10.2264739 L7.31505278,8.61813161 C7.41039634,8.35638229 7.77449949,8.35638229 7.86984306,8.61813161 L8.11863424,9.3011449 L8.61416033,5.67346099 C8.66140396,5.32759634 9.15291106,5.32759634 9.20015469,5.67346099 L9.82207677,10.2264739 L11.5365767,10.2264739 C11.6999479,10.2264739 11.8323864,10.3611358 11.8323864,10.5272496 C11.8323864,10.6933634 11.6999479,10.8280253 11.5365767,10.8280253 L9.56451231,10.8280253 C9.41686525,10.8280253 9.29182669,10.7173252 9.27151513,10.5686268 L8.90715751,7.90121077 L8.5427999,10.5686268 C8.50049606,10.8783279 8.07921068,10.9249228 7.97240757,10.6317133 L7.59244792,9.58859959 Z" id="Path-22" fill="#FFBD66"></path>
                                <path d="M12.5370621,10.6317133 C12.4940831,10.7497049 12.3834138,10.8280253 12.259667,10.8280253 L10.9449574,10.8280253 C10.7815862,10.8280253 10.6491477,10.6933634 10.6491477,10.5272496 C10.6491477,10.3611358 10.7815862,10.2264739 10.9449574,10.2264739 L12.0537795,10.2264739 L12.6396266,8.61813161 C12.7349702,8.35638229 13.0990734,8.35638229 13.1944169,8.61813161 L13.4432081,9.3011449 L13.9387342,5.67346099 C13.9859778,5.32759634 14.4774849,5.32759634 14.5247286,5.67346099 L15.1466506,10.2264739 L16.8611506,10.2264739 C17.0245217,10.2264739 17.1569602,10.3611358 17.1569602,10.5272496 C17.1569602,10.6933634 17.0245217,10.8280253 16.8611506,10.8280253 L14.8890862,10.8280253 C14.7414391,10.8280253 14.6164006,10.7173252 14.596089,10.5686268 L14.2317314,7.90121077 L13.8673738,10.5686268 C13.8250699,10.8783279 13.4037845,10.9249228 13.2969814,10.6317133 L12.9170218,9.58859959 L12.5370621,10.6317133 Z" id="Path-22-Copy" fill="#FFBD66"></path>
                                <path d="M7.53352383,17.3861334 L7.272199,18.4223748 C7.23865008,18.5554076 7.12073236,18.6484375 6.98565887,18.6484375 L5.62038352,18.6484375 C5.45701236,18.6484375 5.32457386,18.5137802 5.32457386,18.347672 C5.32457386,18.1815638 5.45701236,18.0469066 5.62038352,18.0469066 L6.75612844,18.0469066 L7.15421053,16.4683765 C7.22183378,16.2002274 7.57972943,16.1595124 7.70396726,16.4058349 L7.78356522,16.5636513 L8.06202004,15.2754559 C8.08241468,15.1811056 8.1461408,15.102458 8.2333181,15.0640483 L9.59859345,14.4625173 C9.77927046,14.3829123 9.98457767,14.501655 10.0096177,14.7002397 L10.4316078,18.0469066 L11.5365767,18.0469066 C11.6999479,18.0469066 11.8323864,18.1815638 11.8323864,18.347672 C11.8323864,18.5137802 11.6999479,18.6484375 11.5365767,18.6484375 L10.1713014,18.6484375 C10.0224731,18.6484375 9.89681882,18.5360118 9.87789318,18.3859187 L9.47283167,15.1735069 L8.60737188,15.5548226 L8.18475662,17.509937 C8.12522381,17.7853494 7.75918034,17.8335356 7.63262584,17.5826199 L7.53352383,17.3861334 Z" id="Path-23" fill="#FFBD66"></path>
                                <path d="M12.5967729,18.4223748 C12.5632239,18.5554076 12.4453062,18.6484375 12.3102327,18.6484375 L10.9449574,18.6484375 C10.7815862,18.6484375 10.6491477,18.5137802 10.6491477,18.347672 C10.6491477,18.1815638 10.7815862,18.0469066 10.9449574,18.0469066 L12.0807023,18.0469066 L12.4787844,16.4683765 C12.5464076,16.2002274 12.9043033,16.1595124 13.0285411,16.4058349 L13.1081391,16.5636513 L13.3865939,15.2754559 C13.4069885,15.1811056 13.4707147,15.102458 13.557892,15.0640483 L14.9231673,14.4625173 C15.1038443,14.3829123 15.3091515,14.501655 15.3341916,14.7002397 L15.7561817,18.0469066 L16.8611506,18.0469066 C17.0245217,18.0469066 17.1569602,18.1815638 17.1569602,18.347672 C17.1569602,18.5137802 17.0245217,18.6484375 16.8611506,18.6484375 L15.4958752,18.6484375 C15.347047,18.6484375 15.2213927,18.5360118 15.202467,18.3859187 L14.7974055,15.1735069 L13.9319457,15.5548226 L13.5093305,17.509937 C13.4497977,17.7853494 13.0837542,17.8335356 12.9571997,17.5826199 L12.8580977,17.3861334 L12.5967729,18.4223748 Z" id="Path-23-Copy" fill="#FFBD66"></path>
                                <g id="10" transform="translate(29.000000, 9.000000)" fill="#FFBD66" font-family="SourceSansPro-Bold, Source Sans Pro" font-size="3" font-weight="bold">
                                    <text>
                                        <tspan x="0.4424716" y="3.1384943">10</tspan>
                                    </text>
                                </g>
                                <path d="M14.1988636,26.46875 L23.0731534,26.46875 L23.0731534,26.875 C23.0731534,27.9795695 22.1777229,28.875 21.0731534,28.875 L16.1988636,28.875 C15.0942941,28.875 14.1988636,27.9795695 14.1988636,26.875 L14.1988636,26.46875 Z" id="Rectangle-21" fill="#78706A"></path>
                            </g>
                        </g>
                    </g>
                </g>
                <g id="Clipped">
                    <mask id="mask-4" fill="white">
                        <use xlink:href="#path-3"></use>
                    </mask>
                    <g id="path-1"></g>
                    <g id="Group" mask="url(#mask-4)">
                        <g transform="translate(13.545455, 9.590909)">
                            <g id="mann-bak" transform="translate(0.117647, 3.447917)">
                                <path d="M8.23529412,29.6566586 C8.83605788,30.6943911 10.5234021,48.9270833 15.5882353,48.9270833 C20.6541648,48.9270833 22.9411765,30.3553857 22.9411765,29.388696 C15.1852286,24.5892177 8.23529412,29.6566586 8.23529412,29.6566586 Z" id="Path" fill="#E7E5E2"></path>
                                <g id="mennesker/⚙️/kropp/Person/Forfra/-rund-hals" transform="translate(0.000000, 28.322917)">
                                    <g id="Group" transform="translate(0.000000, 0.260870)">
                                        <g id="Mask" fill="#D8A25D">
                                            <path d="M21.9231131,0.285085727 C25.3153405,1.59256718 32,7.17171882 32,12.3078279 L32,27.7391304 L0,27.7391304 L0,12.3078279 C0,7.09885166 6.75780717,1.43417259 10.0754209,0.232029943 C10.1433197,3.23378425 12.769846,6.30434783 16,6.30434783 C19.2111255,6.30434783 21.8257141,3.26985456 21.9231131,0.285085727 Z" id="path-3"></path>
                                        </g>
                                        <g id="⚙️/+20/-Blå-Clipped">
                                            <mask id="mask-6" fill="white">
                                                <use xlink:href="#path-5"></use>
                                            </mask>
                                            <g id="path-3"></g>
                                            <g id="⚙️/+20/-Blå" mask="url(#mask-6)">
                                                <g transform="translate(-22.000000, -18.000000)" id="+20/-Blå">
                                                    <g transform="translate(0.666667, 0.347826)">
                                                        <g id="Group" fill="#0C5EA8">
                                                            <polygon id="Fill-66" points="0 63 75 63 75 0 0 0"></polygon>
                                                        </g>
                                                    </g>
                                                </g>
                                            </g>
                                        </g>
                                    </g>
                                </g>
                                <path d="M27.7575154,19.8693269 C26.2762896,26.3746443 21.5203916,31.1354167 15.8820589,31.1354167 C10.2437951,31.1354167 5.48834614,26.3747607 4.00719776,19.8695656 C3.86123427,19.9299746 3.69957031,19.9635208 3.52941176,19.9635208 C2.88051258,19.9635208 2.35294118,19.4736146 2.35294118,18.8667917 L2.35294118,14.4411146 C2.35294118,13.8342917 2.88051258,13.34375 3.52941176,13.34375 C3.57141111,13.34375 3.61289295,13.3457964 3.65374893,13.3497883 C4.50769597,5.80250907 9.65677173,0 15.8820589,0 C22.1073525,0 27.2569222,5.80252118 28.1109469,13.3498119 C28.1518144,13.3458044 28.1933002,13.34375 28.2352941,13.34375 C28.8855565,13.34375 29.4117647,13.8342917 29.4117647,14.4411146 L29.4117647,18.8667917 C29.4117647,19.4736146 28.8855565,19.9635208 28.2352941,19.9635208 C28.0652688,19.9635208 27.9035733,19.9298863 27.7575154,19.8693269 Z" id="Combined-Shape" fill="#E7E5E2"></path>
                            </g>
                            <g id="mennesker/mann/⚙️/ansikt-forfra/-undrende" transform="translate(10.235294, 14.885417)">
                                <g id="Group" transform="translate(0.439024, 0.000000)">
                                    <path d="M1.37145366,2.60075172 C0.524429268,2.64978621 0.287356098,1.70075172 0.54257561,1.08192414 C0.59057561,0.963993103 0.870965854,0.42957931 1.3673561,0.42957931 C1.86316098,0.42957931 2.0820878,0.721924138 2.11252683,0.7722 C2.47720976,1.37613103 2.29867317,2.5479931 1.37145366,2.60075172" id="Fill-95" fill="#635E59"></path>
                                    <path d="M10.2393951,2.60075172 C11.0864195,2.64978621 11.3234927,1.70075172 11.0688585,1.08192414 C11.0202732,0.963993103 10.7398829,0.42957931 10.2434927,0.42957931 C9.7476878,0.42957931 9.52876098,0.721924138 9.49832195,0.7722 C9.13363902,1.37613103 9.31276098,2.5479931 10.2393951,2.60075172" id="Fill-97" fill="#635E59"></path>
                                    <path d="M6.32218537,4.24582759 C6.82852683,4.16327586 7.32199024,4.18313793 7.55379512,4.4847931 C8.11867317,5.22093103 7.95652683,6.07065517 7.00530732,6.69817241 C6.52999024,7.01162069 5.85681951,7.14010345 5.44413659,6.94644828" id="Stroke-99" stroke="#D1BFA3" stroke-linecap="round"></path>
                                    <path d="M2.40813659,10.4384483 C2.40813659,10.4384483 2.84013659,10.9666552 4.04306341,10.9567241 L5.24657561,10.9467931" id="Stroke-101" stroke="#593A32" stroke-width="1.013" stroke-linecap="round"></path>
                                </g>
                            </g>
                            <g id="mennesker/mann/⚙️/-hår/-forfra/-kort-" transform="translate(3.058824, 0.906250)">
                                <g id="g/hårfarge/-sort" transform="translate(0.568182, 0.000000)">
                                    <g id="mennesker/⚙️/hårfarge/-sort-Clipped">
                                        <mask id="mask-8" fill="white">
                                            <use xlink:href="#path-7"></use>
                                        </mask>
                                        <g id="path-5"></g>
                                        <g id="mennesker/⚙️/hårfarge/-sort" mask="url(#mask-8)">
                                            <g transform="translate(-8.000000, -19.000000)" id="hårfarge/-sort">
                                                <g transform="translate(0.045455, 0.290323)">
                                                    <rect id="Rectangle" fill="#3E3832" x="0" y="0" width="39" height="51"></rect>
                                                </g>
                                            </g>
                                        </g>
                                    </g>
                                </g>
                            </g>
                            <g id="mennesker/mann/⚙️/-skjegg/-forfra/-lang" transform="translate(3.588235, 16.156250)">
                                <g id="hårfarge/-rød" transform="translate(0.000000, 0.636364)">
                                    <g id="mennesker/⚙️/hårfarge/-sort-Clipped">
                                        <mask id="mask-10" fill="white">
                                            <use xlink:href="#path-9"></use>
                                        </mask>
                                        <g id="path-7"></g>
                                        <g id="mennesker/⚙️/hårfarge/-sort" mask="url(#mask-10)">
                                            <g transform="translate(-9.000000, -16.000000)" id="hårfarge/-sort">
                                                <g transform="translate(0.666667, 0.090909)">
                                                    <rect id="Rectangle" fill="#3E3832" x="0" y="0" width="41" height="50"></rect>
                                                </g>
                                            </g>
                                        </g>
                                    </g>
                                </g>
                            </g>
                        </g>
                    </g>
                </g>
                <g id="Rectangle-Clipped">
                    <mask id="mask-12" fill="white">
                        <use xlink:href="#path-11"></use>
                    </mask>
                    <g id="path-1"></g>
                    <rect id="Rectangle" fill="#FFBD66" mask="url(#mask-12)" x="49.6363636" y="46.3622727" width="9.22727273" height="1" rx="0.5"></rect>
                </g>
                <g id="Rectangle-Clipped">
                    <mask id="mask-14" fill="white">
                        <use xlink:href="#path-13"></use>
                    </mask>
                    <g id="path-1"></g>
                    <rect id="Rectangle" fill="#FFBD66" mask="url(#mask-14)" x="49.6363636" y="38.544545" width="9.22727273" height="1" rx="0.5"></rect>
                </g>
                <g id="nav-id/-kort/-rød-Clipped">
                    <mask id="mask-16" fill="white">
                        <use xlink:href="#path-15"></use>
                    </mask>
                    <g id="path-1"></g>
                    <g id="nav-id/-kort/-rød" mask="url(#mask-16)">
                        <g transform="translate(35.000000, 50.000000)" id="NAV-Copy-2">
                            <g>
                                <g id="Group" transform="translate(0.000000, 0.666667)">
                                    <g id="Group-11">
                                        <g id="Navansatt-dame">
                                            <g id="Group" transform="translate(0.000000, 0.250000)">
                                                <path d="M5.58253077,4.08333333 L0.41716022,4.08333333 C0.186640573,4.08333333 0,3.89385124 0,3.65982204 L0,0.840491672 C0,0.606462469 0.186640573,0.416666667 0.41716022,0.416666667 L5.58253077,0.416666667 C5.81305042,0.416666667 6,0.606462469 6,0.840491672 L6,3.65982204 C6,3.89385124 5.81305042,4.08333333 5.58253077,4.08333333" id="Fill-97" fill="#D2242A"></path>
                                                <path d="M4.28791123,2.41943161 C4.28791123,3.11182292 3.7239378,3.67380208 3.02799577,3.67380208 C2.33087017,3.67380208 1.76660085,3.11182292 1.76660085,2.41943161 C1.76660085,1.72704031 2.33087017,1.16506114 3.02799577,1.16506114 C3.7239378,1.16506114 4.28791123,1.72704031 4.28791123,2.41943161" id="Fill-98" fill="#FFFFFF"></path>
                                                <polygon id="Fill-99" fill="#FFFFFF" points="1.39472162 2.97234375 1.14883394 2.97234375 1.41158756 2.33146966 1.65806703 2.33146966"></polygon>
                                                <polygon id="Fill-100" fill="#FFFFFF" points="4.49364614 2.97234375 4.34126087 2.97234375 4.60401449 2.33146966 4.75639976 2.33146966"></polygon>
                                                <polygon id="Fill-101" fill="#FFFFFF" points="4.91422947 2.97234375 4.84972464 2.97234375 5.11188647 2.33146966 5.1763913 2.33146966"></polygon>
                                                <path d="M2.07030616,2.96925272 L2.26382065,2.96925272 C2.27388104,2.96925272 2.28157428,2.96159873 2.28157428,2.95188406 L2.28157428,2.35222373 C2.28157428,2.34250906 2.27388104,2.33485507 2.26382065,2.33485507 L2.0682349,2.33485507 C2.05521558,2.33485507 2.04574698,2.34486413 2.04574698,2.35752264 L1.96881461,2.54622283 C1.96408031,2.5559375 1.97177355,2.56771286 1.98212983,2.56771286 L2.03746196,2.56771286 C2.04574698,2.56771286 2.05284843,2.57389493 2.05284843,2.58302083 L2.05284843,2.95188406 C2.05284843,2.96159873 2.06054167,2.96925272 2.07030616,2.96925272" id="Fill-102" fill="#C52D35"></path>
                                                <path d="M2.49074155,2.96925272 L2.68484783,2.96925272 C2.69490821,2.96925272 2.70348913,2.96159873 2.70348913,2.95188406 L2.70348913,2.35222373 C2.70348913,2.34250906 2.69490821,2.33485507 2.68484783,2.33485507 L2.38303623,2.33485507 C2.3703128,2.33485507 2.36025242,2.34486413 2.36025242,2.35752264 L2.28302415,2.54622283 L2.25639372,2.56771286 L2.41085024,2.56771286 C2.44517391,2.56771286 2.47328382,2.5947962 2.47328382,2.62953351 L2.47328382,2.95188406 C2.47328382,2.96159873 2.48097705,2.96925272 2.49074155,2.96925272" id="Fill-103" fill="#C52D35"></path>
                                                <path d="M3.35874577,2.33491395 L3.16463949,2.33491395 C3.154875,2.33491395 3.14688587,2.34256793 3.14688587,2.35228261 L3.14688587,2.95194293 C3.14688587,2.96165761 3.154875,2.96931159 3.16463949,2.96931159 L3.36081703,2.96931159 C3.37383635,2.96931159 3.38330495,2.95930254 3.38330495,2.94664402 L3.46023732,2.75794384 C3.46497162,2.7476404 3.45757428,2.7364538 3.44573853,2.7364538 L3.39218176,2.7364538 C3.38330495,2.7364538 3.37709118,2.72938859 3.37709118,2.72144022 L3.37709118,2.35228261 C3.37709118,2.34256793 3.36821437,2.33491395 3.35874577,2.33491395" id="Fill-104" fill="#C52D35"></path>
                                                <path d="M2.56036534,2.96925272 L2.68789553,2.96925272 C2.70032307,2.96925272 2.71038345,2.95894928 2.71038345,2.94687953 L2.78731582,2.75759058 C2.79175423,2.74758152 2.78435688,2.73610054 2.77311292,2.73610054 L2.71926027,2.73610054 L2.56036534,2.96925272 Z" id="Fill-105" fill="#C52D35"></path>
                                                <path d="M3.87815761,2.33491395 L4.10895471,2.33491395 C4.12019867,2.33491395 4.1281878,2.34551178 4.1234535,2.35581522 L3.87904529,2.95959692 C3.87726993,2.96577899 3.87164795,2.96931159 3.86484239,2.96931159 L3.65594143,2.96931159 L3.86306703,2.34521739 C3.86543418,2.33903533 3.87164795,2.33491395 3.87815761,2.33491395" id="Fill-106" fill="#C52D35"></path>
                                                <path d="M3.58877355,2.33491395 L3.26240278,2.33491395 C3.23932307,2.33491395 3.35620109,2.35728714 3.36448611,2.37818841 L3.59528321,2.94929348 C3.60001751,2.96195199 3.61185326,2.96931159 3.62487258,2.96931159 L3.82282548,2.96931159 L3.6192506,2.35640399 C3.6148122,2.34286232 3.60238466,2.33491395 3.58877355,2.33491395" id="Fill-107" fill="#C52D35"></path>
                                                <path d="M3.16262742,2.53833333 C3.16262742,2.66609601 3.14635326,2.67375 3.14635326,2.67375 C3.14635326,2.67375 3.12800785,2.55128623 3.03302597,2.55128623 C2.93981944,2.55128623 2.9185151,2.6054529 2.9185151,2.64578351 C2.9185151,2.69259058 2.96615399,2.7364538 2.99278442,2.7364538 L3.16262742,2.7364538 L3.06231944,2.95753623 C3.05876872,2.96489583 3.05166727,2.96931159 3.04367814,2.96931159 L2.96644988,2.96931159 C2.88567089,2.96931159 2.67469867,2.8639221 2.67469867,2.65991395 C2.67469867,2.45561141 2.83152234,2.33491395 2.96230737,2.33491395 C3.07030857,2.33491395 3.16262742,2.40880435 3.16262742,2.53833333 Z" id="Fill-108" fill="#C52D35"></path>
                                                <path d="M3.31036715,0.998675272 L2.77509541,0.998675272 C2.73544565,0.998675272 2.70348913,0.966881793 2.70348913,0.92743433 L2.70348913,0.837647192 C2.70348913,0.798494112 2.73544565,0.76640625 2.77509541,0.76640625 L3.31036715,0.76640625 C3.35001691,0.76640625 3.38197343,0.798494112 3.38197343,0.837647192 L3.38197343,0.92743433 C3.38197343,0.966881793 3.35001691,0.998675272 3.31036715,0.998675272" id="Fill-109" fill="#5A1F57"></path>
                                                <polygon id="Fill-110" fill="#C2B5CF" points="2.88777174 0.916666667 3.19786836 0.916666667 3.19786836 0.0833333333 2.88777174 0.0833333333"></polygon>
                                            </g>
                                        </g>
                                    </g>
                                </g>
                            </g>
                        </g>
                    </g>
                </g>
            </g>
        </g>
    </g>
</svg>