<?xml version="1.0" encoding="UTF-8"?>
<svg width="220px" height="220px" viewBox="0 0 220 220" version="1.1" xmlns="http://www.w3.org/2000/svg" xmlns:xlink="http://www.w3.org/1999/xlink">
    <!-- Generator: Sketch 52.5 (67469) - http://www.bohemiancoding.com/sketch -->
    <title>mennesker/mann/ forfra</title>
    <desc>Created with Sketch.</desc>
    <defs>
        <circle id="path-1" cx="110" cy="110" r="110"></circle>
        <path d="M68.5097286,0.904409893 C79.110439,5.05228208 100,22.7516597 100,39.0455231 L100,88 L0,88 L0,39.0455231 C0,22.5204949 21.1181474,4.5497889 31.4856904,0.736094993 C31.6978739,10.2589017 39.9057687,20 50,20 C60.034767,20 68.2053565,10.3733317 68.5097286,0.904409893 Z" id="path-3"></path>
        <path d="M76.9090909,47.1588466 C69.6976695,37.8407145 64.6498598,24.7826256 64.6498598,24.7826256 C41.7040912,17.3238852 12.9732548,25.0136059 12.7824568,25.7450437 C10.1779723,35.6964469 0.545454567,48 0.545454567,48 C0.691169479,23.564597 12.746559,-0.0488764505 38.6994866,0.000359283024 C65.3204312,-0.101657036 76.2051762,21.5354269 76.9090909,47.1588466 Z" id="path-5"></path>
        <path d="M37.5917853,36.062028 C28.7685952,36.062028 21.6164446,32.9347775 21.6164446,29.077535 C21.6164446,25.2202924 28.7685952,22.0930419 37.5917853,22.0930419 C46.4149754,22.0930419 53.567126,25.2202924 53.567126,29.077535 C53.567126,32.9347775 46.4149754,36.062028 37.5917853,36.062028 M38.4453439,18.1543382 C32.8712719,18.1543382 29.0818221,18.1896917 21.7671691,22.145358 C4.85729992,31.2862076 0,0 0,0 C0,51.4649077 23.1420175,64 38.1906714,64 C53.4767642,64 78,54.0378585 78,0 C76.9784052,0.858304953 70.7676847,28.5345251 53.434638,21.6759418 C46.7059232,19.0146072 44.0194158,18.1543382 38.4453439,18.1543382 Z" id="path-7"></path>
    </defs>
    <g id="Feilsider" stroke="none" stroke-width="1" fill="none" fill-rule="evenodd">
        <g id="Feilside-1" transform="translate(-610.000000, -315.000000)">
            <g id="mennesker/mann/-forfra" transform="translate(610.000000, 315.000000)">
                <mask id="mask-2" fill="white">
                    <use xlink:href="#path-1"></use>
                </mask>
                <use id="Mask" fill-opacity="0.8" fill="#FFA733" xlink:href="#path-1"></use>
                <g id="gjenstander/helse/røntgenbilde-copy" mask="url(#mask-2)">
                    <g transform="translate(104.000000, 89.000000)">
                        <rect id="Rectangle-28" fill="#B7B1A9" fill-rule="nonzero" x="0" y="0" width="119" height="83.1875" rx="2"></rect>
                        <rect id="Rectangle" fill="#B7B1A9" fill-rule="nonzero" x="52.0625" y="83.1875" width="13.015625" height="37.8125"></rect>
                        <rect id="Rectangle-29" fill="#3E3832" fill-rule="nonzero" x="7.4375" y="7.5625" width="104.125" height="60.5"></rect>
                        <ellipse id="Oval-11" fill="#66CBEC" fill-rule="nonzero" cx="102.265625" cy="75.625" rx="5.578125" ry="5.671875"></ellipse>
                        <rect id="Rectangle-31" fill="#E7E9E9" fill-rule="nonzero" x="7.4375" y="71.84375" width="11.15625" height="7.5625"></rect>
                        <rect id="Rectangle-31-Copy" fill="#E7E9E9" fill-rule="nonzero" x="26.03125" y="71.84375" width="11.15625" height="7.5625"></rect>
                        <rect id="Rectangle-31-Copy-2" fill="#E7E9E9" fill-rule="nonzero" x="44.625" y="71.84375" width="11.15625" height="7.5625"></rect>
                        <polygon id="Line-6" fill="#FFBD66" fill-rule="nonzero" points="83.8125 11.34375 85.671875 11.34375 85.671875 66.171875 83.8125 66.171875"></polygon>
                        <path d="M23.8619792,30.1355987 L22.6678202,33.4139562 C22.5327433,33.7847867 22.1849254,34.0309367 21.7960069,34.0309367 L17.6640625,34.0309367 C17.1506103,34.0309367 16.734375,33.6077137 16.734375,33.0856416 C16.734375,32.5635695 17.1506103,32.1403465 17.6640625,32.1403465 L21.148932,32.1403465 L22.9901659,27.0855565 C23.2898171,26.2629158 24.4341413,26.2629158 24.7337925,27.0855565 L25.5157076,29.2321697 L27.0730753,17.8308774 C27.2215553,16.7438742 28.7662919,16.7438742 28.9147719,17.8308774 L30.8693841,32.1403465 L36.2578125,32.1403465 C36.7712647,32.1403465 37.1875,32.5635695 37.1875,33.0856416 C37.1875,33.6077137 36.7712647,34.0309367 36.2578125,34.0309367 L30.0598958,34.0309367 C29.5958622,34.0309367 29.2028839,33.6830222 29.1390475,33.2156843 L27.9939236,24.8323767 L26.8487997,33.2156843 C26.7158448,34.1890304 25.391805,34.3354718 25.0561381,33.4139562 L23.8619792,30.1355987 Z" id="Path-22" fill="#FFBD66" fill-rule="nonzero"></path>
                        <path d="M39.4021952,33.4139562 C39.2671183,33.7847867 38.9193004,34.0309367 38.5303819,34.0309367 L34.3984375,34.0309367 C33.8849853,34.0309367 33.46875,33.6077137 33.46875,33.0856416 C33.46875,32.5635695 33.8849853,32.1403465 34.3984375,32.1403465 L37.883307,32.1403465 L39.7245409,27.0855565 C40.0241921,26.2629158 41.1685163,26.2629158 41.4681675,27.0855565 L42.2500826,29.2321697 L43.8074503,17.8308774 C43.9559303,16.7438742 45.5006669,16.7438742 45.6491469,17.8308774 L47.6037591,32.1403465 L52.9921875,32.1403465 C53.5056397,32.1403465 53.921875,32.5635695 53.921875,33.0856416 C53.921875,33.6077137 53.5056397,34.0309367 52.9921875,34.0309367 L46.7942708,34.0309367 C46.3302372,34.0309367 45.9372589,33.6830222 45.8734225,33.2156843 L44.7282986,24.8323767 L43.5831747,33.2156843 C43.4502198,34.1890304 42.12618,34.3354718 41.7905131,33.4139562 L40.5963542,30.1355987 L39.4021952,33.4139562 Z" id="Path-22-Copy" fill="#FFBD66" fill-rule="nonzero"></path>
                        <path d="M23.6767892,54.6421336 L22.8554826,57.8988921 C22.7500431,58.3169953 22.3794446,58.609375 21.9549279,58.609375 L17.6640625,58.609375 C17.1506103,58.609375 16.734375,58.1861664 16.734375,57.6641121 C16.734375,57.1420578 17.1506103,56.7188492 17.6640625,56.7188492 L21.2335465,56.7188492 L22.4846617,51.7577546 C22.6971919,50.9150005 23.8220068,50.787039 24.2124685,51.5611954 L24.4626335,52.0571899 L25.3377773,48.0085757 C25.4018747,47.7120462 25.6021568,47.464868 25.8761426,47.3441517 L30.167008,45.4536259 C30.73485,45.2034386 31.3801012,45.5766298 31.4587986,46.2007535 L32.7850532,56.7188492 L36.2578125,56.7188492 C36.7712647,56.7188492 37.1875,57.1420578 37.1875,57.6641121 C37.1875,58.1861664 36.7712647,58.609375 36.2578125,58.609375 L31.9669471,58.609375 C31.4992012,58.609375 31.1042877,58.2560371 31.0448071,57.7843158 L29.7717567,47.6881646 L27.0517402,48.8865852 L25.7235208,55.0312307 C25.5364177,55.8968124 24.3859954,56.0482548 23.9882526,55.2596626 L23.6767892,54.6421336 Z" id="Path-23" fill="#FFBD66" fill-rule="nonzero"></path>
                        <path d="M39.5898576,57.8988921 C39.4844181,58.3169953 39.1138196,58.609375 38.6893029,58.609375 L34.3984375,58.609375 C33.8849853,58.609375 33.46875,58.1861664 33.46875,57.6641121 C33.46875,57.1420578 33.8849853,56.7188492 34.3984375,56.7188492 L37.9679215,56.7188492 L39.2190367,51.7577546 C39.4315669,50.9150005 40.5563818,50.787039 40.9468435,51.5611954 L41.1970085,52.0571899 L42.0721523,48.0085757 C42.1362497,47.7120462 42.3365318,47.464868 42.6105176,47.3441517 L46.901383,45.4536259 C47.469225,45.2034386 48.1144762,45.5766298 48.1931736,46.2007535 L49.5194282,56.7188492 L52.9921875,56.7188492 C53.5056397,56.7188492 53.921875,57.1420578 53.921875,57.6641121 C53.921875,58.1861664 53.5056397,58.609375 52.9921875,58.609375 L48.7013221,58.609375 C48.2335762,58.609375 47.8386627,58.2560371 47.7791821,57.7843158 L46.5061317,47.6881646 L43.7861152,48.8865852 L42.4578958,55.0312307 C42.2707927,55.8968124 41.1203704,56.0482548 40.7226276,55.2596626 L40.4111642,54.6421336 L39.5898576,57.8988921 Z" id="Path-23-Copy" fill="#FFBD66" fill-rule="nonzero"></path>
                        <text id="10" fill="none" font-family="SourceSansPro-Bold, Source Sans Pro" font-size="15" font-weight="bold">
                            <tspan x="89.390625" y="40.578125" fill="#FFBD66">10</tspan>
                        </text>
                        <path d="M44.625,83.1875 L72.515625,83.1875 L72.515625,88.75 C72.515625,89.8545695 71.6201945,90.75 70.515625,90.75 L46.625,90.75 C45.5204305,90.75 44.625,89.8545695 44.625,88.75 L44.625,83.1875 Z" id="Rectangle-21" fill="#78706A" fill-rule="nonzero"></path>
                    </g>
                </g>
                <g mask="url(#mask-2)">
                    <g transform="translate(30.000000, 27.000000)">
                        <g id="mann-bak" transform="translate(12.970588, 14.072917)">
                            <path d="M25.9411765,93.8317232 C27.8335823,97.1150408 33.1487166,154.802083 49.1029412,154.802083 C65.0606191,154.802083 72.2647059,96.0424498 72.2647059,92.9839071 C47.83347,77.7986723 25.9411765,93.8317232 25.9411765,93.8317232 Z" id="Path" fill="#E7E5E2"></path>
                            <g id="mennesker/⚙️/kropp/Person/Forfra/-rund-hals" transform="translate(0.000000, 86.447917)">
                                <g id="Group" transform="translate(0.000000, 4.000000)">
                                    <mask id="mask-4" fill="white">
                                        <use xlink:href="#path-3"></use>
                                    </mask>
                                    <use id="Mask" fill="#D8A25D" xlink:href="#path-3"></use>
                                    <g id="⚙️/+20/-Blå" mask="url(#mask-4)">
                                        <g transform="translate(-66.666667, -56.000000)" id="+20/-Blå">
                                            <g>
                                                <polygon id="Fill-66" fill="#0C5EA8" points="0 200 233 200 233 0 0 0"></polygon>
                                            </g>
                                        </g>
                                    </g>
                                </g>
                            </g>
                            <path d="M87.4361737,62.8652475 C82.7703123,83.447645 67.7892335,98.5104167 50.0284855,98.5104167 C32.2679547,98.5104167 17.2882903,83.4480135 12.622673,62.8660026 C12.1628879,63.0571329 11.6536465,63.1632708 11.1176471,63.1632708 C9.07361461,63.1632708 7.41176471,61.6132396 7.41176471,59.6932917 L7.41176471,45.6907396 C7.41176471,43.7707917 9.07361461,42.21875 11.1176471,42.21875 C11.249945,42.21875 11.3806128,42.2252246 11.5093091,42.2378547 C14.1992423,18.3587582 30.4188309,0 50.0284855,0 C69.6381605,0 85.8593049,18.3587965 88.5494827,42.2379294 C88.6782155,42.2252501 88.8088957,42.21875 88.9411765,42.21875 C90.9895031,42.21875 92.6470588,43.7707917 92.6470588,45.6907396 L92.6470588,59.6932917 C92.6470588,61.6132396 90.9895031,63.1632708 88.9411765,63.1632708 C88.4055967,63.1632708 87.8962558,63.0568533 87.4361737,62.8652475 Z" id="Combined-Shape" fill="#E7E5E2"></path>
                        </g>
                        <g id="mennesker/mann/⚙️/ansikt-forfra/-skeptisk" transform="translate(25.941176, 50.260417)">
                            <g id="Group" transform="translate(20.390244, 0.000000)">
                                <path d="M26.9462634,34.843 C26.9462634,34.843 25.4577756,31.931 21.655922,32.223 L17.855922,32.513" id="Stroke-156" stroke="#593A32" stroke-width="1.013" stroke-linecap="round"></path>
                                <path d="M3.79443902,10.1878 C1.11219512,10.3738 0.361463415,6.7298 1.16965854,4.3518 C1.32165854,3.8998 2.20956098,1.8478 3.78146341,1.8478 C5.3515122,1.8478 6.04478049,2.9698 6.14117073,3.1618 C7.296,5.4818 6.73063415,9.9838 3.79443902,10.1878" id="Fill-158" fill="#635E59"></path>
                                <path d="M33.7299122,10.1878 C36.4121561,10.3738 37.1628878,6.7298 36.3565463,4.3518 C36.2026927,3.8998 35.3147902,1.8478 33.7428878,1.8478 C32.172839,1.8478 31.4795707,2.9698 31.3831805,3.1618 C30.2283512,5.4818 30.7955707,9.9838 33.7299122,10.1878" id="Fill-160" fill="#635E59"></path>
                                <path d="M19.4717561,14.8166 C21.0751707,14.5506 22.6378049,14.6146 23.3718537,15.5866 C25.1606341,17.9566 24.6471707,20.6966 21.6349756,22.7186 C20.1298049,23.7286 17.9980976,24.1426 16.6912683,23.5186" id="Stroke-162" stroke="#D1BFA3" stroke-linecap="round"></path>
                            </g>
                        </g>
                        <g id="mennesker/mann/⚙️/-hår/-forfra/-kort-" transform="translate(22.235294, 6.031250)">
                            <g id="g/hårfarge/-sort" transform="translate(1.818182, 0.000000)">
                                <mask id="mask-6" fill="white">
                                    <use xlink:href="#path-5"></use>
                                </mask>
                                <g id="Mask"></g>
                                <g id="mennesker/⚙️/hårfarge/-sort" mask="url(#mask-6)" fill="#3E3832">
                                    <g transform="translate(-25.454545, -58.000000)" id="hårfarge/-sort">
                                        <rect x="0" y="0" width="125" height="158"></rect>
                                    </g>
                                </g>
                            </g>
                        </g>
                        <g id="mennesker/mann/⚙️/-skjegg/-forfra/-lang" transform="translate(23.902940, 54.281250)">
                            <g id="hårfarge/-rød" transform="translate(0.000000, 2.000000)">
                                <mask id="mask-8" fill="white">
                                    <use xlink:href="#path-7"></use>
                                </mask>
                                <g id="Mask"></g>
                                <g id="mennesker/⚙️/hårfarge/-sort" mask="url(#mask-8)" fill="#3E3832">
                                    <g transform="translate(-26.000000, -50.000000)" id="hårfarge/-sort">
                                        <rect x="0" y="0" width="128" height="158"></rect>
                                    </g>
                                </g>
                            </g>
                        </g>
                    </g>
                </g>
                <rect id="Rectangle" fill="#FFBD66" mask="url(#mask-2)" x="156" y="145.71" width="29" height="1.9" rx="0.95"></rect>
                <rect id="Rectangle" fill="#FFBD66" mask="url(#mask-2)" x="156" y="121.14" width="29" height="1.9" rx="0.95"></rect>
                <g id="nav-id/-kort/-rød" mask="url(#mask-2)">
                    <g transform="translate(109.000000, 171.000000)" id="NAV-Copy-2">
                        <g transform="translate(0.000000, -1.000000)">
                            <g id="Group-11">
                                <g id="Navansatt-dame">
                                    <g transform="translate(0.000000, 0.750000)">
                                        <path d="M16.7475923,12.25 L1.25148066,12.25 C0.559921718,12.25 0,11.6815537 0,10.9794661 L0,2.52147502 C0,1.81938741 0.559921718,1.25 1.25148066,1.25 L16.7475923,1.25 C17.4391513,1.25 18,1.81938741 18,2.52147502 L18,10.9794661 C18,11.6815537 17.4391513,12.25 16.7475923,12.25" id="Fill-97" fill="#D2242A"></path>
                                        <path d="M12.8637337,7.25829484 C12.8637337,9.33546875 11.1718134,11.0214062 9.08398732,11.0214062 C6.99261051,11.0214062 5.29980254,9.33546875 5.29980254,7.25829484 C5.29980254,5.18112092 6.99261051,3.49518342 9.08398732,3.49518342 C11.1718134,3.49518342 12.8637337,5.18112092 12.8637337,7.25829484" id="Fill-98" fill="#FFFFFF"></path>
                                        <polygon id="Fill-99" fill="#FFFFFF" points="4.18416486 8.91703125 3.44650181 8.91703125 4.23476268 6.99440897 4.97420109 6.99440897"></polygon>
                                        <polygon id="Fill-100" fill="#FFFFFF" points="13.4809384 8.91703125 13.0237826 8.91703125 13.8120435 6.99440897 14.2691993 6.99440897"></polygon>
                                        <polygon id="Fill-101" fill="#FFFFFF" points="14.7426884 8.91703125 14.5491739 8.91703125 15.3356594 6.99440897 15.5291739 6.99440897"></polygon>
                                        <path d="M6.21091848,8.90775815 L6.79146196,8.90775815 C6.82164312,8.90775815 6.84472283,8.8847962 6.84472283,8.85565217 L6.84472283,7.0566712 C6.84472283,7.02752717 6.82164312,7.00456522 6.79146196,7.00456522 L6.20470471,7.00456522 C6.16564674,7.00456522 6.13724094,7.03459239 6.13724094,7.07256793 L5.90644384,7.63866848 C5.89224094,7.6678125 5.91532065,7.70313859 5.94638949,7.70313859 L6.11238587,7.70313859 C6.13724094,7.70313859 6.15854529,7.72168478 6.15854529,7.7490625 L6.15854529,8.85565217 C6.15854529,8.8847962 6.181625,8.90775815 6.21091848,8.90775815" id="Fill-102" fill="#C52D35"></path>
                                        <path d="M7.47222464,8.90775815 L8.05454348,8.90775815 C8.08472464,8.90775815 8.11046739,8.8847962 8.11046739,8.85565217 L8.11046739,7.0566712 C8.11046739,7.02752717 8.08472464,7.00456522 8.05454348,7.00456522 L7.1491087,7.00456522 C7.11093841,7.00456522 7.08075725,7.03459239 7.08075725,7.07256793 L6.84907246,7.63866848 L6.76918116,7.70313859 L7.23255072,7.70313859 C7.33552174,7.70313859 7.41985145,7.78438859 7.41985145,7.88860054 L7.41985145,8.85565217 C7.41985145,8.8847962 7.44293116,8.90775815 7.47222464,8.90775815" id="Fill-103" fill="#C52D35"></path>
                                        <path d="M10.0762373,7.00474185 L9.49391848,7.00474185 C9.464625,7.00474185 9.44065761,7.0277038 9.44065761,7.05684783 L9.44065761,8.8558288 C9.44065761,8.88497283 9.464625,8.90793478 9.49391848,8.90793478 L10.0824511,8.90793478 C10.1215091,8.90793478 10.1499149,8.87790761 10.1499149,8.83993207 L10.380712,8.27383152 C10.3949149,8.2429212 10.3727228,8.20936141 10.3372156,8.20936141 L10.1765453,8.20936141 C10.1499149,8.20936141 10.1312736,8.18816576 10.1312736,8.16432065 L10.1312736,7.05684783 C10.1312736,7.0277038 10.1046431,7.00474185 10.0762373,7.00474185" id="Fill-104" fill="#C52D35"></path>
                                        <path d="M7.68109601,8.90775815 L8.06368659,8.90775815 C8.1009692,8.90775815 8.13115036,8.87684783 8.13115036,8.84063859 L8.36194746,8.27277174 C8.37526268,8.24274457 8.35307065,8.20830163 8.31933877,8.20830163 L8.1577808,8.20830163 L7.68109601,8.90775815 Z" id="Fill-105" fill="#C52D35"></path>
                                        <path d="M11.6344728,7.00474185 L12.3268641,7.00474185 C12.360596,7.00474185 12.3845634,7.03653533 12.3703605,7.06744565 L11.6371359,8.87879076 C11.6318098,8.89733696 11.6149438,8.90793478 11.5945272,8.90793478 L10.9678243,8.90793478 L11.5892011,7.03565217 C11.5963025,7.01710598 11.6149438,7.00474185 11.6344728,7.00474185" id="Fill-106" fill="#C52D35"></path>
                                        <path d="M10.7663207,7.00474185 L9.78720833,7.00474185 C9.7179692,7.00474185 10.0686033,7.07186141 10.0934583,7.13456522 L10.7858496,8.84788043 C10.8000525,8.88585598 10.8355598,8.90793478 10.8746178,8.90793478 L11.4684764,8.90793478 L10.8577518,7.06921196 C10.8444366,7.02858696 10.807154,7.00474185 10.7663207,7.00474185" id="Fill-107" fill="#C52D35"></path>
                                        <path d="M9.48788225,7.615 C9.48788225,7.99828804 9.43905978,8.02125 9.43905978,8.02125 C9.43905978,8.02125 9.38402355,7.6538587 9.0990779,7.6538587 C8.81945833,7.6538587 8.75554529,7.8163587 8.75554529,7.93735054 C8.75554529,8.07777174 8.89846196,8.20936141 8.97835326,8.20936141 L9.48788225,8.20936141 L9.18695833,8.8726087 C9.17630616,8.8946875 9.15500181,8.90793478 9.13103442,8.90793478 L8.89934964,8.90793478 C8.65701268,8.90793478 8.02409601,8.5917663 8.02409601,7.97974185 C8.02409601,7.36683424 8.49456703,7.00474185 8.8869221,7.00474185 C9.21092572,7.00474185 9.48788225,7.22641304 9.48788225,7.615 Z" id="Fill-108" fill="#C52D35"></path>
                                        <path d="M9.93110145,2.99602582 L8.32528623,2.99602582 C8.20633696,2.99602582 8.11046739,2.90064538 8.11046739,2.78230299 L8.11046739,2.51294158 C8.11046739,2.39548234 8.20633696,2.29921875 8.32528623,2.29921875 L9.93110145,2.29921875 C10.0500507,2.29921875 10.1459203,2.39548234 10.1459203,2.51294158 L10.1459203,2.78230299 C10.1459203,2.90064538 10.0500507,2.99602582 9.93110145,2.99602582" id="Fill-109" fill="#5A1F57"></path>
                                        <polygon id="Fill-110" fill="#C2B5CF" points="8.66331522 2.75 9.59360507 2.75 9.59360507 0.25 8.66331522 0.25"></polygon>
                                    </g>
                                </g>
                            </g>
                        </g>
                    </g>
                </g>
            </g>
        </g>
    </g>
</svg>